<?xml version="1.0" encoding="utf-8"?>
<svg version="1.1" xmlns:xlink="http://www.w3.org/1999/xlink" width="14px" height="14px" xmlns="http://www.w3.org/2000/svg">
  <g transform="matrix(1 0 0 1 -125 -7496 )">
    <path d="M 13.790637191157346 5.771131339401821  L 12.534460338101429 7  L 13.790637191157346 8.22886866059818  C 13.972691807542262 8.398786302557433  14.033376679670567 8.611183355006501  13.972691807542262 8.866059817945384  C 13.899869960988296 9.114867793671433  13.742089293454704 9.269614217598612  13.499349804941483 9.33029908972692  L 11.788036410923276 9.767230169050714  L 12.270481144343304 11.46033810143043  C 12.34330299089727 11.709146077156479  12.28565236237538 11.92154312960555  12.097529258777634 12.097529258777634  C 11.92154312960555 12.28565236237538  11.709146077156483 12.34330299089727  11.46033810143043 12.270481144343304  L 9.767230169050714 11.788036410923276  L 9.330299089726918 13.499349804941483  C 9.269614217598614 13.742089293454704  9.114867793671436 13.899869960988296  8.866059817945384 13.972691807542262  C 8.793237971391417 13.984828781967924  8.735587342869529 13.990897269180753  8.693107932379714 13.990897269180753  C 8.504984828781968 13.990897269180753  8.35023840485479 13.92414390983962  8.22886866059818 13.790637191157346  L 7 12.534460338101429  L 5.771131339401821 13.790637191157346  C 5.601213697442567 13.972691807542262  5.388816644993498 14.033376679670567  5.133940182054616 13.972691807542262  C 4.885132206328566 13.905938448201129  4.730385782401388 13.748157780667533  4.6697009102730815 13.499349804941483  L 4.232769830949286 11.788036410923276  L 2.539661898569571 12.270481144343304  C 2.2908539228435196 12.34330299089727  2.078456870394452 12.28565236237538  1.9024707412223667 12.097529258777634  C 1.7143476376246207 11.92154312960555  1.6566970091027309 11.709146077156479  1.729518855656697 11.46033810143043  L 2.2119635890767233 9.767230169050714  L 0.5006501950585176 9.33029908972692  C 0.2579107065452969 9.269614217598612  0.1001300390117035 9.114867793671433  0.027308192457737322 8.866059817945384  C -0.03337667967056784 8.611183355006501  0.027308192457737312 8.398786302557433  0.2093628088426528 8.22886866059818  L 1.4655396618985694 7  L 0.2093628088426528 5.771131339401821  C 0.027308192457737312 5.6012136974425655  -0.03337667967056784 5.388816644993498  0.027308192457737322 5.133940182054616  C 0.1001300390117035 4.885132206328565  0.2579107065452969 4.730385782401387  0.5006501950585176 4.669700910273082  L 2.2119635890767233 4.232769830949286  L 1.729518855656697 2.5396618985695705  C 1.6566970091027309 2.290853922843518  1.7143476376246207 2.078456870394451  1.9024707412223667 1.9024707412223663  C 2.078456870394452 1.7143476376246198  2.2908539228435196 1.6566970091027307  2.539661898569571 1.7295188556566972  L 4.232769830949286 2.2119635890767233  L 4.6697009102730815 0.5006501950585176  C 4.730385782401388 0.251842219332465  4.885132206328566 0.09709579540528712  5.133940182054616 0.036410923276982476  C 5.382748157780668 -0.036410923276982476  5.595145210229736 0.021239705244906704  5.771131339401821 0.20936280884265313  L 7 1.4746423927178152  L 8.22886866059818 0.20936280884265313  C 8.404854789770264 0.027308192457737634  8.617251842219332 -0.030342436064154654  8.866059817945384 0.036410923276982476  C 9.114867793671436 0.09709579540528712  9.269614217598614 0.251842219332465  9.330299089726918 0.5006501950585176  L 9.767230169050714 2.2119635890767233  L 11.46033810143043 1.7295188556566972  C 11.709146077156483 1.6566970091027307  11.92154312960555 1.7143476376246198  12.097529258777634 1.9024707412223663  C 12.28565236237538 2.078456870394451  12.34330299089727 2.290853922843518  12.270481144343304 2.5396618985695705  L 11.788036410923276 4.232769830949286  L 13.499349804941483 4.669700910273082  C 13.742089293454704 4.730385782401387  13.899869960988296 4.885132206328565  13.972691807542262 5.133940182054616  C 14.033376679670567 5.388816644993498  13.972691807542262 5.6012136974425655  13.790637191157346 5.771131339401821  Z " fill-rule="nonzero" fill="#4371b5" stroke="none" transform="matrix(1 0 0 1 125 7496 )" />
  </g>
</svg>