<?xml version="1.0" encoding="utf-8"?>
<svg version="1.1" xmlns:xlink="http://www.w3.org/1999/xlink" width="40px" height="41px" xmlns="http://www.w3.org/2000/svg">
  <g transform="matrix(1 0 0 1 -142 -59 )">
    <path d="M 13.655291432847005 20.19451511511511  L 13.66393041526376 20.190207298207298  L 27.433435465768778 33.33710261170259  C 31.750860830527504 37.46071352261354  32.42470145903477 39.17775315315313  39.05953385708942 39.64608776958774  L 39.05953385708942 40  L 24.850849233071447 40  L 24.850849233071447 39.64608776958774  C 26.007346053123843 39.64608776958774  26.829082304526757 39.45532639912638  27.333429854096526 39.069402193102135  C 27.84219079685746 38.68347798707796  28.094317620650948 38.249886850486824  28.094317620650948 37.777244417144374  C 28.094317620650948 37.30029416689413  27.99431200897866 36.87972012922009  27.81176655443321 36.502411557011506  C 27.620394313505425 36.12950444990442  27.002988776655457 35.422741532441464  25.95523045267489 34.399447720447675  L 12 20.662849731549688  L 12 33.64061640731637  C 12.059615039281715 35.674280580580536  12.190044893378246 37.01841310401304  12.455317994762442 37.66449199199195  C 12.64659633370747 38.15886080626077  13.072629629629628 38.58374266084263  13.71182042648709 38.93932485212482  C 14.57261990273101 39.41627510237505  15.485722783389457 39.64608776958774  16.446527871305662 39.64608776958774  L 17.833554059109595 39.64608776958774  L 17.833554059109595 40  L 0.56404040404039 40  L 0.56404040404039 39.64608776958774  L 1.9944493078937362 39.64608776958774  C 6.898762065095399 39.64608776958774  7.2640407781518785 38.20652773682769  8 33.79672794612793  L 8 7.78041691691688  C 7.2640407781518785 5.746846391846358  7.142249906472133 4.389603121303096  6.8770707070706925 3.72619931749928  C 6.572734380845494 2.9587523705523338  3.9857347549569666 1.905116543816525  2.89881930415264 1.519192337792315  C 2.585750093527868 1.410747729547695  2.0422454171343123 1.4064399126398803  2.0422454171343123 1.4064399126398803  L 2.0422454171343123 1.0811997360996943  L 2.0422454171343123 1  L 17.41615974560419 1  L 17.41615974560419 1.345755883155872  L 16.420517022072577 1.4974659568659399  C 15.490042274597835 1.6362525798525644  14.594405162738502 1.85304814814813  13.71182042648709 2.3039642005641943  C 13.09441488963712 2.620495095095092  12.65964870931539 3.0931375284375315  12.42479985035541 3.7306007826007694  C 12.18140591096146 4.359261106561107  12.059615039281715 5.660128164528176  12 7.633014660114658  L 12 19.964702447902457  C 12.455317994762442 19.578871890071895  13.811826038159376 18.325671762671746  16.12481967826413 16.196673728273737  C 22.003083800972707 10.820049986349995  25.55952749719416 7.229765538265547  26.78560568649459 5.430315497315492  C 27.32479087167977 4.632432887432866  27.5856505798728 3.942994885794877  27.5856505798728 3.3489843934844052  C 27.5856505798728 2.8936668759668676  27.372586980920314 2.499127036127028  26.955192667414913 2.147946309946312  C 26.537798353909476 1.8053812175812085  25.842172465394718 1.6319447629447656  24.8465297418631 1.6319447629447656  L 23.93352076318747 1.6319447629447656  L 23.93352076318747 1  L 35.08560194537975 1  L 35.08560194537975 1.6319447629447656  C 33.911733258511056 1.657885312585312  32.55513131313134 2.399391709891712  31.776965581743376 2.87634196014195  C 30.742165731387967 3.51371156611156  30.029074074074092 4.610800154700119  28.52476430976433 5.99829179179179  C 23.798677515899776 10.364732468832473  19.28565432098768 15.407594048594026  13.655291432847005 20.19451511511511  Z " fill-rule="nonzero" fill="#ffffff" stroke="none" transform="matrix(1 0 0 1 142 59 )" />
  </g>
</svg>