<?xml version="1.0" encoding="utf-8"?>
<svg version="1.1" xmlns:xlink="http://www.w3.org/1999/xlink" width="13px" height="13px" xmlns="http://www.w3.org/2000/svg">
  <g transform="matrix(1 0 0 1 -125 -1560 )">
    <path d="M 8.031901041666666 4.968098958333334  C 8.455078125 5.391276041666666  8.666666666666666 5.901909722222221  8.666666666666666 6.5  C 8.666666666666666 7.098090277777778  8.455078125 7.608723958333332  8.031901041666666 8.031901041666668  C 7.608723958333334 8.455078125  7.098090277777779 8.666666666666668  6.5 8.666666666666668  C 5.901909722222222 8.666666666666668  5.391276041666667 8.455078125  4.968098958333333 8.031901041666668  C 4.544921875 7.608723958333332  4.333333333333333 7.098090277777778  4.333333333333333 6.5  C 4.333333333333333 5.901909722222221  4.544921875 5.391276041666666  4.968098958333333 4.968098958333334  C 5.391276041666667 4.544921875  5.901909722222222 4.333333333333334  6.5 4.333333333333334  C 7.098090277777779 4.333333333333334  7.608723958333334 4.544921875  8.031901041666666 4.968098958333334  Z M 8.810546875 2.513671875  C 8.10525173611111 2.101779513888889  7.335069444444445 1.895833333333334  6.5 1.895833333333334  C 5.664930555555555 1.895833333333334  4.894748263888889 2.101779513888889  4.189453125 2.513671875  C 3.484157986111111 2.92556423611111  2.925564236111111 3.48415798611111  2.513671875 4.189453125  C 2.1017795138888893 4.894748263888888  1.8958333333333335 5.664930555555555  1.8958333333333335 6.5  C 1.8958333333333335 7.335069444444445  2.1017795138888893 8.10525173611111  2.513671875 8.810546875  C 2.925564236111111 9.515842013888888  3.484157986111111 10.07443576388889  4.189453125 10.486328125  C 4.894748263888889 10.89822048611111  5.664930555555555 11.104166666666666  6.5 11.104166666666666  C 7.335069444444445 11.104166666666666  8.10525173611111 10.89822048611111  8.810546875 10.486328125  C 9.51584201388889 10.07443576388889  10.07443576388889 9.515842013888888  10.486328125 8.810546875  C 10.89822048611111 8.10525173611111  11.104166666666666 7.335069444444445  11.104166666666666 6.5  C 11.104166666666666 5.664930555555555  10.89822048611111 4.894748263888888  10.486328125 4.189453125  C 10.07443576388889 3.48415798611111  9.51584201388889 2.92556423611111  8.810546875 2.513671875  Z M 12.128255208333334 3.2373046875  C 12.709418402777777 4.23318142361111  13 5.320746527777776  13 6.5  C 13 7.679253472222222  12.709418402777777 8.766818576388888  12.128255208333334 9.7626953125  C 11.54709201388889 10.75857204861111  10.75857204861111 11.54709201388889  9.7626953125 12.128255208333334  C 8.76681857638889 12.709418402777779  7.679253472222222 13  6.5 13  C 5.320746527777779 13  4.233181423611112 12.709418402777779  3.2373046875 12.128255208333334  C 2.2414279513888893 11.54709201388889  1.4529079861111112 10.75857204861111  0.8717447916666667 9.7626953125  C 0.2905815972222222 8.766818576388888  0 7.679253472222222  0 6.5  C 0 5.320746527777776  0.2905815972222222 4.23318142361111  0.8717447916666667 3.2373046875  C 1.4529079861111112 2.241427951388889  2.2414279513888893 1.4529079861111098  3.2373046875 0.8717447916666662  C 4.233181423611112 0.2905815972222211  5.320746527777779 0  6.5 0  C 7.679253472222222 0  8.76681857638889 0.2905815972222211  9.7626953125 0.8717447916666662  C 10.75857204861111 1.4529079861111098  11.54709201388889 2.241427951388889  12.128255208333334 3.2373046875  Z " fill-rule="nonzero" fill="#1363a7" stroke="none" transform="matrix(1 0 0 1 125 1560 )" />
  </g>
</svg>