<?xml version="1.0" encoding="utf-8"?>
<svg version="1.1" xmlns:xlink="http://www.w3.org/1999/xlink" width="42px" height="57px" xmlns="http://www.w3.org/2000/svg">
  <g transform="matrix(1 0 0 1 -125 -20 )">
    <path d="M 19.711410526315767 39.93921056721058  L 19.71570728335989 39.92633389665889  C 26.008494790005308 39.92633389665889  25.074323763955345 37.93610087412587  23.582228176501868 33.067793026418016  C 22.75183317384369 30.361190986790973  20.779715098351943 24.304801845376836  20.230384051036673 21.997098679098677  C 16.34228596491229 21.962822649572644  10.304688463583213 26.35932558275058  8.30660303030302 30.215378904428896  C 7.065307283359907 32.604510800310784  6.663093460925041 35.96735984848484  8.328273631047315 38.06051359751359  C 10.438822009569362 40.715516317016316  13.146152578415714 39.93059524087025  16.34228596491229 39.93059524087025  L 16.34228596491229 40.85706705516705  L 8.609337586390192 40.85706705516705  C 6.416590377458798 40.87855905205906  4.046555236576281 40.8999584110334  2.385765231259955 40.85706705516705  L 0.9541978734715405 40.85706705516705  L 0.9541978734715405 39.93059524087025  C 3.5708295055821098 39.93059524087025  3.8648771398192423 40.02499327894329  5.015380542264733 37.241223853923856  C 5.958145082402975 34.963628010878004  9.357533758639025 24.133236421911437  10.244160233918132 21.392358352758354  C 11.368696278575204 17.918065889665897  12.532089952153093 14.409404759129773  13.682499946836794 10.88360561383062  C 14.244721265284435 9.159336052836073  16.63203684210527 1.112621250971262  17.233209197235485 0.27193214840715557  L 18.91127963849016 0.2676708041958293  C 19.43034657097286 1.0654685508935866  21.735463317384347 9.15072072649574  22.258827006911197 10.793561557886578  C 22.80806464646461 12.504954448329467  23.30975773524717 14.254977350427362  23.863385539606565 16.00500025252527  C 24.412623179159983 17.746500466200484  25.048356406166928 19.59518275058275  25.493818022328526 21.362343667443678  C 27.59138272195638 21.705474514374533  29.36033891547047 22.19877142579644  31.098937586390193 23.05659854312355  C 33.70258553960655 24.334816530691526  35.54925699096222 25.97330337995339  37.20136007442844 28.045057770007766  C 44.14286448697498 36.73940425407926  41.04630377458795 49.993203768453775  30.48478155236572 54.7843442307692  C 26.795641998936688 56.45719974747476  22.129083625730967 56.79606925019424  18.003075970228583 55.56074261849262  C 16.013584051036666 54.96452498057498  14.162522434875026 54.11957453379953  13.224054651780937 52.87989391996893  C 10.538301275917025 49.336956759906755  12.787186549707585 44.52441693861693  16.92617788410419 44.05687336829836  C 22.630776714513523 43.40924168609169  25.472240829346056 50.739587470862475  20.619614194577345 54.085205866355864  C 19.572980223285462 54.80583622766124  18.993478468899504 54.651408818958814  17.87333258904835 55.054569036519055  C 23.28808713450291 56.51722911810411  28.222912599681 55.98104085081582  32.42233875598083 53.231640093240095  C 35.70496772993087 51.08271831779333  38.7756544922913 47.848635975135984  39.98229595959593 42.72724133644133  C 42.51243200425305 31.982539821289805  34.731845667198264 23.18527261072261  25.757694949494912 21.87277859362859  C 25.813926422115873 22.833526437451425  30.117222009569343 36.57210017482517  30.666459649122793 37.55434001554002  C 32.08065316321102 40.0807613053613  32.46128979266344 39.93921056721058  35.004316108452926 39.93921056721058  L 35.004316108452926 40  L 19.711410526315767 40  C 19.711410526315767 40.556827564102576  19.711410526315767 40.247972746697755  19.711410526315767 39.93921056721058  Z M 10.399870972886752 23.215287296037285  C 9.889490962254124 24.686562703962696  8.93374274322169 27.2171527000777  8.674255980861252 28.64979809634807  L 8.678552737905376 28.64979809634807  C 9.128311111111097 28.203746522921506  9.258054492291333 27.929167735042714  9.742467145135574 27.401594794094773  C 12.458484635831995 24.44635258352756  15.684882137161079 22.164402758352733  20.035815683147266 21.52529376456874  L 15.73252009569376 7.2463630536130355  C 15.715239659755442 7.276377738927727  15.680585380116954 7.289254409479401  15.671991866028709 7.349283780108766  L 10.399870972886752 23.215287296037285  Z " fill-rule="nonzero" fill="#f3eedb" stroke="none" transform="matrix(1 0 0 1 125 20 )" />
  </g>
</svg>