<?xml version="1.0" encoding="utf-8"?>
<svg version="1.1" xmlns:xlink="http://www.w3.org/1999/xlink" width="87px" height="87px" xmlns="http://www.w3.org/2000/svg">
  <g transform="matrix(1 0 0 1 -833 -1343 )">
    <path d="M 87 72.5  C 87 64.50566645463307  80.49880324447422 58  72.50402578878543 58  C 71.61947668222919 58  70.77359834047482 58.10633284660677  69.93255166552572 58.26099952061971  C 69.93255166552572 58.26099952061971  28.740596302081457 17.071333646774292  28.740596302081457 17.071333646774292  C 28.895271564444208 16.235167014102142  29.001610315514174 15.379666648805141  29.001610315514174 14.5  C 29.001610315514174 6.505666454633078  22.49558261344586 0  14.500805157757087 0  C 6.506027702068316 0  0 6.505666454633078  0 14.5  C 0 20.79300022125244  4.055391777917187 26.10483128329118  9.667203438504725 28.10583130518595  C 9.667203438504725 28.10583130518595  9.667203438504725 58.88933340708415  9.667203438504725 58.88933340708415  C 6.848486438130653 59.88358159611623  4.406335209570972 61.72534345587095  2.675599920946606 64.16208330790202  C 0.9448646323222409 66.59882315993309  0.010283559771499695 69.5112364590168  0 72.5  C 0 80.49433354536693  6.506027702068316 87  14.500805157757087 87  C 17.489582251559344 86.9915351360105  20.402378536208786 86.05764595170815  22.838834502885554 84.32668972015381  C 25.275290469562325 82.59573348859946  27.115801009043455 80.15268174807231  28.10739196919249 77.33333333333333  C 28.10739196919249 77.33333333333333  58.89260342112569 77.33333333333333  58.89260342112569 77.33333333333333  C 59.88480408372109 80.15229081114133  61.72547214467301 82.59494498868783  64.16179241384134 84.32580471038818  C 66.59811268300967 86.05666443208854  69.51058628993204 86.9908307508061  72.49919484224291 87  C 80.49397229793168 86.99999999999999  87 80.49433354536693  87 72.5  Z M 19.33440687700945 58.88933340708415  C 19.33440687700945 58.88933340708415  19.33440687700945 28.11066659291585  19.33440687700945 28.11066659291585  C 20.92466182420475 27.54033325612545  22.374742685706593 26.704164750874043  23.655647072163244 25.65533145268758  C 23.655647072163244 25.65533145268758  61.35290584804369 63.350501696268715  61.35290584804369 63.350501696268715  C 60.28866334940673 64.63661635418732  59.457648710587215 66.0989907036225  58.897438977350035 67.6714973449707  C 58.897438977350035 67.6714973449707  28.10739196919249 67.6714973449707  28.10739196919249 67.6714973449707  C 27.389376333396825 65.64789356291294  26.229433094905932 63.80970782538255  24.711886514932186 62.29057343800863  C 23.194339934958446 60.771439050634704  21.357331025026333 59.60953740030527  19.33440687700945 58.88933340708415  Z M 9.667203438504725 14.5  C 9.667203438504725 11.836833337942759  11.83265707557017 9.666666666666666  14.500805157757087 9.666666666666666  C 15.45816822205897 9.665710789862109  16.39429671505199 9.948772892355919  17.19071353105866 10.480029821395874  C 17.987130347065328 11.01128675043583  18.60803378004307 11.766856707632542  18.97484247604555 12.651113192240397  C 19.341651172048028 13.535369676848251  19.437876083142765 14.508562584718069  19.25133810585525 15.447525103886923  C 19.064800128567732 16.386487623055775  18.603884094054465 17.2490097284317  17.926925813794288 17.92593042055766  C 17.24996753353411 18.602851112683613  16.387397533926197 19.063741554816563  15.448382875932797 19.250269174575806  C 14.509368217939398 19.43679679433505  13.536121270495862 19.340577226132154  12.651815684786778 18.973788897196453  C 11.767510099077692 18.607000568260748  11.011898186500838 17.986131610969704  10.48061175776175 17.189759016036987  C 9.949325329022662 16.39338642110427  9.666247508622124 15.45730990668138  9.667203438504725 14.5  Z M 14.500805157757087 77.33333333333333  C 13.256250561308239 77.27766433389236  12.081129657335062 76.74411914000909  11.220124572677198 75.84378814697266  C 10.35911948801933 74.94345715393622  9.878589617512976 73.74573003749053  9.878589617512976 72.5  C 9.878589617512976 71.25426996250947  10.35911948801933 70.05654284606378  11.220124572677198 69.15621185302734  C 12.081129657335062 68.25588085999091  13.256250561308239 67.72233566610764  14.500805157757087 67.66666666666667  C 15.745359754205936 67.72233566610764  16.920480658179113 68.25588085999091  17.781485742836978 69.15621185302734  C 18.642490827494846 70.05654284606378  19.1230206980012 71.25426996250947  19.1230206980012 72.5  C 19.1230206980012 73.74573003749053  18.642490827494846 74.94345715393622  17.781485742836978 75.84378814697266  C 16.920480658179113 76.74411914000909  15.745359754205936 77.27766433389236  14.500805157757087 77.33333333333333  Z M 72.50402578878543 77.33333333333333  C 71.25947119233658 77.27766433389236  70.0843479835225 76.74411914000909  69.22334289886464 75.84378814697266  C 68.36233781420677 74.94345715393622  67.88180563885953 73.74573003749053  67.8818056388595 72.5  C 67.88180563885953 71.25426996250947  68.36233781420677 70.05654284606378  69.22334289886464 69.15621185302734  C 70.0843479835225 68.25588085999091  71.25947119233658 67.72233566610764  72.50402578878543 67.66666666666667  C 73.74858038523429 67.72233566610764  74.92370359404836 68.25588085999091  75.78470867870624 69.15621185302734  C 76.6457137633641 70.05654284606378  77.12624593871135 71.25426996250947  77.12624593871136 72.5  C 77.12624593871135 73.74573003749053  76.6457137633641 74.94345715393622  75.78470867870624 75.84378814697266  C 74.92370359404836 76.74411914000909  73.74858038523429 77.27766433389236  72.50402578878543 77.33333333333333  Z " fill-rule="nonzero" fill="#5c0b0d" stroke="none" transform="matrix(1 0 0 1 833 1343 )" />
  </g>
</svg>