<?xml version="1.0" encoding="utf-8"?>
<svg version="1.1" xmlns:xlink="http://www.w3.org/1999/xlink" width="84px" height="86px" xmlns="http://www.w3.org/2000/svg">
  <g transform="matrix(1 0 0 1 -649 -1344 )">
    <path d="M 84 43  C 84 36.61449993848801  79.43039774894713 31.33410083502531  73.47479782104492 30.315000820159913  C 71.75529885292052 25.902633273601534  69.17648699283599 21.894804990291593  65.89543075561522 18.535628366470338  C 62.61437451839447 15.176451742649078  58.69975354671479 12.53623960018158  54.38999919891358 10.775800180435182  C 53.39459918439388 4.678400254249572  48.23700006008148 0  42 0  C 35.76299993991852 0  30.605400815606117 4.678400254249572  29.610000801086425 10.775800180435182  C 25.29974327087402 12.535364720225333  21.384680449962616 15.175268405675888  18.103517818450925 18.534553956985473  C 14.82235518693924 21.89383950829506  12.243844610452653 25.90211811065674  10.525200176239013 30.315000820159913  C 4.5696002483367915 31.33410083502531  0 36.61449993848801  0 43  C 0 49.385500061512  4.5696002483367915 54.66589916497469  10.525200176239013 55.684999179840084  C 12.244699144363402 60.09736672639847  14.823511004447937 64.10519295930862  18.104567241668704 67.46436958312988  C 21.385623478889467 70.82354620695114  25.300246453285215 73.46375834941864  29.610000801086425 75.22419776916504  C 30.605400815606117 81.32159769535065  35.76299993991852 86  42 86  C 48.23700006008148 86  53.39459918439388 81.32159769535065  54.38999919891358 75.22419776916504  C 58.69975354671479 73.46375834941864  62.61437451839447 70.82354620695114  65.89543075561522 67.46436958312988  C 69.17648699283599 64.10519295930862  71.75529885292052 60.09736672639847  73.47479782104492 55.684999179840084  C 79.43039774894713 54.66589916497469  84 49.385500061512  84 43  Z M 42 8.6  C 43.11390929818153 8.6  44.18219490945339 9.053035254776479  44.969847679138184 9.859441661834717  C 45.757500448822974 10.665848068892956  46.199999999999996 11.759569051861762  46.199999999999996 12.9  C 46.199999999999996 13.15799999423325  46.10339833348989 13.372999212518335  46.05719833374023 13.618099212646484  C 45.99790136106312 14.033069596439601  45.880497553199525 14.437124805152417  45.708601570129396 14.817800426483155  C 45.64980156831443 14.93390042949468  45.56579907462001 15.028499604016544  45.494399070739746 15.140299606323241  C 45.30766593441367 15.467236908525228  45.08193326666951 15.76912210583687  44.82239971160889 16.039000082015992  C 44.65439971536398 16.19810008406639  44.44440105780959 16.30560011770576  44.25120105743408 16.434600114822388  C 44.0244010515511 16.58940010815859  43.81440122053027 16.77000081855804  43.558201217651366 16.877500820159913  C 43.07520120888949 17.079600813239814  42.554399996995926 17.2  42 17.2  C 41.445600003004074 17.2  40.92479879111051 17.079600813239814  40.44179878234863 16.877500820159913  C 40.18559877946973 16.774300819262862  39.97559894844889 16.59370011687279  39.74879894256591 16.434600114822388  C 39.555598942190414 16.30560011770576  39.34560028463602 16.19810008406639  39.17760028839112 16.039000082015992  C 38.91806673333049 15.76912210583687  38.69233406558632 15.467236908525228  38.505600929260254 15.140299606323241  C 38.43420092538 15.028499604016544  38.35019843168557 14.93390042949468  38.29139842987061 14.817800426483155  C 38.120099240541464 14.436894327402115  38.00272144451737 14.03292859941721  37.94280166625976 13.618099212646484  C 37.8966016665101 13.372999212518335  37.8 13.15799999423325  37.8 12.9  C 37.8 11.759569051861762  38.24249955117702 10.665848068892956  39.030152320861816 9.859441661834717  C 39.817805090546614 9.053035254776479  40.88609070181846 8.599999999999996  42 8.6  Z M 9.630152320861818 39.95944166183472  C 10.417805090546608 39.153035254776476  11.486090701818465 38.7  12.6 38.7  C 12.851999994367361 38.7  13.06199923083186 38.798901706188914  13.301399230957031 38.846201705932614  C 13.717199228703976 38.91930170990527  14.116200412809848 39.02249839492142  14.473200416564941 39.203098392486574  C 14.58660041950643 39.263298394344744  14.678999613225459 39.34930094741285  14.788199615478517 39.4224009513855  C 15.103199627995492 39.624500944465396  15.41400008574128 39.83950029090047  15.666000080108644 40.11040029525757  C 15.82140008211136 40.28240029141307  15.926400114968418 40.49739891700447  16.0524001121521 40.695198917388915  C 16.203600105643275 40.927398923411964  16.380000799521806 41.142398750409484  16.48500080108643 41.40469875335693  C 16.68240079432726 41.89919876232743  16.799999999999997 42.4324000030756  16.799999999999997 43  C 16.799999999999997 43.5675999969244  16.68240079432726 44.10080123767256  16.48500080108643 44.59530124664307  C 16.384200800210238 44.857601249590516  16.207800114154818 45.072601076588036  16.0524001121521 45.304801082611085  C 15.926400114968418 45.50260108299553  15.82140008211136 45.71759970858693  15.666000080108644 45.88959970474243  C 15.41400008574128 46.16049970909953  15.103199627995492 46.3754990555346  14.788199615478517 46.5775990486145  C 14.678999613225459 46.65069905258715  14.58660041950643 46.73670160565525  14.473200416564941 46.796901607513426  C 14.10115259885788 46.97227934896946  13.706581422686577 47.092451854422684  13.301399230957031 47.15379829406738  C 13.06199923083186 47.20109829381108  12.851999994367361 47.300000000000004  12.6 47.300000000000004  C 11.486090701818465 47.300000000000004  10.417805090546608 46.846964745223524  9.630152320861818 46.04055833816528  C 8.842499551177026 45.23415193110704  8.399999999999999 44.14043094813824  8.399999999999999 43  C 8.399999999999999 41.85956905186176  8.842499551177026 40.76584806889296  9.630152320861818 39.95944166183472  Z M 44.969847679138184 76.14056243896485  C 44.18219490945339 76.94696884602308  43.11390929818153 77.4  42 77.4  C 40.88609070181846 77.4  39.817805090546614 76.94696884602308  39.030152320861816 76.14056243896485  C 38.24249955117702 75.3341560319066  37.8 74.24043094813824  37.8 73.1  C 37.8 72.84200000576675  37.8966016665101 72.62700078748166  37.94280166625976 72.38190078735352  C 38.014201670140025 71.95620078966022  38.114998432248825 71.5477036781609  38.29139842987061 71.18220367431641  C 38.35019843168557 71.06610367130489  38.43420092538 70.97150039598345  38.505600929260254 70.85970039367676  C 38.70300092250108 70.53720038086176  38.913000284135336 70.21900196261704  39.17760028839112 69.96100196838378  C 39.34560028463602 69.80190196633339  39.555598942190414 69.69439783189446  39.74879894256591 69.56539783477783  C 39.97559894844889 69.41059784144163  40.18559877946973 69.23000328224153  40.44179878234863 69.12250328063965  C 40.92479879111051 68.92040328755975  41.445600003004074 68.8  42 68.8  C 42.554399996995926 68.8  43.07520120888949 68.92040328755975  43.558201217651366 69.12250328063965  C 43.81440122053027 69.2257032815367  44.0244010515511 69.40629783272743  44.25120105743408 69.56539783477783  C 44.44440105780959 69.69439783189446  44.65439971536398 69.80190196633339  44.82239971160889 69.96100196838378  C 45.08699971586466 70.21900196261704  45.29699907749892 70.53720038086176  45.494399070739746 70.85970039367676  C 45.56579907462001 70.97150039598345  45.64980156831443 71.06610367130489  45.708601570129396 71.18220367431641  C 45.88500156775117 71.5477036781609  45.98579832985997 71.96050079837441  46.05719833374023 72.38190078735352  C 46.10339833348989 72.62700078748166  46.199999999999996 72.84200000576675  46.199999999999996 73.1  C 46.199999999999996 74.24043094813824  45.757500448822974 75.3341560319066  44.969847679138184 76.14056243896485  Z M 52.84860076904297 66.5984037399292  C 52.823400768823916 66.5511037401855  52.77719945479184 66.51669842433185  52.756199455261225 66.47369842529297  C 51.71844800412654 64.70991108715535  50.28426554203033 63.22536628544331  48.57299823760986 62.143598556518555  C 48.34619823172688 62.001698557287455  48.11520070508122 61.885597897507246  47.87580070495605 61.756597900390624  C 47.22294799983501 61.39993563219905  46.53972635865211 61.10488419309258  45.8346004486084 60.87509822845459  C 45.56580043584108 60.78479822967201  45.29699942171573 60.685902890935544  45.01979942321777 60.61280288696289  C 44.04119944274425 60.36770288683474  43.04159998297691 60.199999999999996  42 60.199999999999996  C 40.95840001702308 60.199999999999996  39.9587982416153 60.36770053207874  38.984398269653326 60.61710052490235  C 38.70719827115536 60.69020052887499  38.438399541378026 60.784804068505764  38.1653995513916 60.879404067993164  C 37.461919373273844 61.11000796593726  36.78016490936279 61.40503359884024  36.128400993347164 61.7609037399292  C 35.89320098608732 61.885603736341004  35.657999461144215 62.005996195226906  35.431199455261236 62.147896194458006  C 33.71993215084076 63.22966392338276  32.285749688744545 64.71420872509479  31.247998237609863 66.47799606323242  C 31.222798237390816 66.52529606297612  31.176600928790865 66.55970137882977  31.155600929260256 66.60270137786866  C 25.810269141197207 63.99383292794227  21.502797138690948 59.58380001783371  18.95460004806519 54.11119842529297  C 19.00080004781485 54.08539842506871  19.0343992318958 54.03810118054971  19.07639923095703 54.016601181030275  C 20.799168258905407 52.954141362011434  22.249188762903213 51.48581169843674  23.3057991027832 49.73379993438721  C 23.444399102032182 49.50159992836416  23.5619997471571 49.260798367112876  23.683799743652344 49.01999835968018  C 24.032399730384352 48.35779836326838  24.31379942446947 47.66119983494281  24.54479942321777 46.93449983596802  C 24.63299942202866 46.654999846220015  24.729600877314805 46.37980114668608  24.801000881195066 46.09600114822388  C 25.03620088845491 45.08980115950107  25.2 44.0663999825716  25.2 43  C 25.2 41.9336000174284  25.036199480295178 40.91019819974899  24.792599487304685 39.91259822845459  C 24.717991437390445 39.631177270412444  24.632524981722234 39.3528955064714  24.536400032043456 39.078401279449466  C 24.311957927048205 38.35648665726185  24.02376814931631 37.656997834146026  23.675400352478025 36.98860101699829  C 23.54940035529435 36.74350101687014  23.435999710857867 36.50699944831431  23.297399711608886 36.27479944229126  C 22.240789371728894 34.52278767824173  20.790768867731092 33.054458014667034  19.067999839782715 31.991998195648193  C 19.025999840721486 31.96619819542393  18.992400351539256 31.918899212870745  18.950400352478027 31.893099212646487  C 21.49859744310379 26.420497620105746  25.80606744289398 22.010468810796738  31.15139923095703 19.40160036087036  C 31.17659923117608 19.444600359909238  31.22280054520816 19.47899952456355  31.24380054473877 19.52629952430725  C 32.28540052771569 21.293599581718446  33.71340179443359 22.772799375653268  35.427001762390134 23.856399393081663  C 35.65380176827311 23.998299392312763  35.8889992877841 24.118700052797795  36.12419929504395 24.243400049209594  C 36.77519930005073 24.600300035625697  37.45139954388142 24.888399722427128  38.1653995513916 25.124899721145628  C 38.43419956415892 25.215199719928204  38.70300057828426 25.314099159464238  38.980200576782224 25.38719916343689  C 39.95880055725574 25.63229916356504  40.95420000851155 25.8  42 25.8  C 43.30382911562919 25.78201414742507  44.596645671129224 25.55270644053817  45.83039875030517 25.120600032806397  C 46.544398757815365 24.884100034087897  47.22059900164604 24.596000347286463  47.871599006652836 24.239100360870363  C 48.10679901391268 24.11440036445856  48.342000538855785 23.993999703973532  48.568800544738764 23.852099704742432  C 50.28240051269531 22.768499687314034  51.710401779413225 21.289299893379212  52.75200176239014 19.521999835968018  C 52.77720176260919 19.474699836224318  52.82339907120913 19.440300671570004  52.84439907073974 19.397300672531127  C 58.18973085880279 22.006169122457504  62.49720085859298 26.41619998216629  65.04539794921874 31.88880157470703  C 64.99919794946908 31.914601574931293  64.96560076810418 31.961898819450287  64.92360076904296 31.98339881896973  C 63.20083174109458 33.045858637988566  61.750811237096784 34.514188301563266  60.694200897216795 36.26620006561279  C 60.555600897967814 36.49840007163584  60.438000252842905 36.739201632887124  60.316200256347656 36.98000164031983  C 59.96760026961565 37.646501645445824  59.68620057553053 38.338801895082  59.455200576782225 39.069801902771  C 59.36700057797134 39.345001915842296  59.270397119969125 39.62019885331392  59.19899711608886 39.90399885177612  C 58.94681920856237 40.91620138585567  58.81288517592475 41.955472400784494  58.800000000000004 43  C 58.81756757693365 44.334872666001324  59.04154655188322 45.65847056806087  59.46360397338867 46.92159872055054  C 59.694603972136974 47.65259872823953  59.97600366622209 48.34489897787571  60.324603652954096 49.011398983001705  C 60.446403649449344 49.25219899043441  60.56399628371 49.49300055168569  60.70259628295898 49.72520055770874  C 61.76099629998207 51.479600524902345  63.20579609870911 52.9416018217802  64.93199615478517 54.00800180435181  C 64.97819615453483 54.033801804576065  65.01180134676397 54.081099049095066  65.0538013458252 54.1025990486145  C 62.506742048263554 59.578541767597194  58.19719598293304 63.990700173377995  52.84860076904297 66.5984037399292  Z M 74.3698516845703 46.04055833816528  C 73.58219891488551 46.846964745223524  72.51390929818153 47.300000000000004  71.39999999999999 47.300000000000004  C 71.14800000563264 47.300000000000004  70.93800076916813 47.20109829381108  70.69860076904297 47.15379829406738  C 70.29328085929154 47.093089488707484  69.89862628877162 46.97289035208524  69.52680358886718 46.796901607513426  C 69.41340358592569 46.73670160565525  69.32100038677453 46.65069905258715  69.2118003845215 46.5775990486145  C 68.89246627539397 46.386419885233046  68.59760366678238 46.15531263016164  68.33400192260741 45.88959970474243  C 68.1786019206047 45.71759970858693  68.07359788231551 45.50260108299553  67.94759788513183 45.304801082611085  C 67.79639789164065 45.072601076588036  67.62000320591034 44.857601249590516  67.5150032043457 44.59530124664307  C 67.31760321110488 44.10080123767256  67.19999999999999 43.5675999969244  67.19999999999999 43  C 67.19999999999999 42.4324000030756  67.31760321110488 41.89919876232743  67.5150032043457 41.40469875335693  C 67.61580320522188 41.142398750409484  67.79219788312912 40.927398923411964  67.94759788513183 40.695198917388915  C 68.07359788231551 40.49739891700447  68.1786019206047 40.28240029141307  68.33400192260741 40.11040029525757  C 68.58600191697478 39.83950029090047  68.89680037200452 39.624500944465396  69.2118003845215 39.4224009513855  C 69.32100038677453 39.34930094741285  69.41340358592569 39.263298394344744  69.52680358886718 39.203098392486574  C 69.88380359262227 39.02249839492142  70.28700077980756 38.91930170990527  70.69860076904297 38.846201705932614  C 70.93800076916813 38.798901706188914  71.14800000563264 38.7  71.39999999999999 38.7  C 72.51390929818153 38.7  73.58219891488551 39.153035254776476  74.3698516845703 39.95944166183472  C 75.15750445425509 40.76584806889296  75.6 41.85956905186176  75.6 43  C 75.6 44.14043094813824  75.15750445425509 45.23415193110704  74.3698516845703 46.04055833816528  Z " fill-rule="nonzero" fill="#5c0b0d" stroke="none" transform="matrix(1 0 0 1 649 1344 )" />
  </g>
</svg>