<?xml version="1.0" encoding="utf-8"?>
<svg version="1.1" xmlns:xlink="http://www.w3.org/1999/xlink" width="97px" height="97px" xmlns="http://www.w3.org/2000/svg">
  <g transform="matrix(1 0 0 1 -270 -1338 )">
    <path d="M 94.31569528579712 64.38494148254395  C 92.57896363586187 61.94049172103405  90.12828573584555 60.09342999011278  87.3 59.097252035141  C 87.3 59.097252035141  87.3 47.60759992599487  87.3 47.60759992599487  C 90.12827966511249 46.60992329493165  92.57871834933758 44.76181515753269  94.31532526016235 42.316672754287715  C 96.05193217098713 39.87153035104274  96.98968155264156 36.949069622159  97 33.95  C 97.00000000000003 25.928099787235265  90.47190021276474 19.4  82.45 19.4  C 80.54412283897399 19.399043172264648  78.65674536973238 19.773784647136928  76.89580421447754 20.502794337272643  C 75.1348630592227 21.231804027408362  73.53490343540906 22.30078170746565  72.18740377426147 23.648599648475646  C 72.18740377426147 23.648599648475646  53.19964933395386 16.053499722480773  53.19964933395386 16.053499722480773  C 53.248149332869794 15.553949721902606  53.349999999999994 15.064099993929267  53.349999999999994 14.549999999999999  C 53.349999999999994 6.528099787235259  46.82190021276474 0  38.8 0  C 30.778099787235263 0  24.25 6.528099787235259  24.25 14.549999999999999  C 24.25 18.24570011794567  25.680749358236785 21.58734987974167  27.960249352455136 24.157849740982055  C 27.960249352455136 24.157849740982055  19.841350388526916 34.97819948196411  19.841350388526916 34.97819948196411  C 18.157748782634734 34.30634820088744  16.36268909573555 33.95753792175092  14.549999999999999 33.95  C 6.528099787235259 33.95000000000001  0 40.47809978723526  0 48.5  C 0 56.521900212764734  6.528099787235259 63.04999999999999  14.549999999999999 63.04999999999999  C 15.321149972826241 63.04999999999999  16.068050763756037 62.938450334034854  16.80525074005127 62.82205033302307  C 16.80525074005127 62.82205033302307  26.19000046253204 75.33019800186158  26.19000046253204 75.33019800186158  C 24.987200482189653 77.44479795098304  24.25 79.8503999352455  24.25 82.45  C 24.25 90.47190021276474  30.778099787235263 97  38.8 97  C 41.930891832709314 96.98905924716964  44.974393728375425 95.96646810173989  47.47670798301696 94.08470678329468  C 49.97902223765849 92.20294546484946  51.80611111223698 89.56281169354915  52.685549592971796 86.55795059204101  C 52.685549592971796 86.55795059204101  71.90125370025635 82.71675148010253  71.90125370025635 82.71675148010253  C 73.25351021438837 84.16040100157261  74.88708175271749 85.31182494610547  76.70130023956298 86.10007162094116  C 78.51551872640849 86.88831829577684  80.47194269001484 87.29668552456715  82.45 87.3  C 90.47190021276474 87.3  97 80.77190021276475  97 72.75  C 96.99009298708988 69.75142152905464  96.05242693573236 66.82939124405384  94.31569528579712 64.38494148254395  Z M 77.6 33.95  C 77.6 31.277650004625325  79.77280006706714 29.099999999999998  82.45 29.099999999999998  C 83.4106109753251 29.099040827068524  84.34991302713752 29.383081318438048  85.14903173446655 29.91617016792297  C 85.94815044179559 30.449259017407897  86.57116263918579 31.207432075589892  86.93921575546264 32.094737720489505  C 87.30726887173951 32.98204336538911  87.4038225442171 33.95859442353249  87.21665172576904 34.90079474449158  C 87.02948090732097 35.842995065450665  86.56699656248092 36.70849138498306  85.88774166107177 37.387746286392215  C 85.20848675966263 38.06700118780136  84.34299044013024 38.529476282000545  83.40079011917115 38.71664710044861  C 82.45858979821205 38.90381791889668  81.4820433653891 38.8072688717395  80.5947377204895 38.43921575546265  C 79.70743207558989 38.071162639185786  78.94925439208745 37.44815044179558  78.41616554260254 36.649031734466554  C 77.88307669311762 35.84991302713752  77.59904082706854 34.910610975325106  77.6 33.95  Z M 33.95 14.549999999999999  C 33.95 11.87765000462532  36.122800067067146 9.7  38.8 9.7  C 39.76061097532511 9.69904082706853  40.69991302713752 9.983079005777837  41.499031734466556 10.516167855262756  C 42.298150441795585 11.049256704747677  42.92116263918579 11.807432075589896  43.28921575546265 12.6947377204895  C 43.657268871739504 13.582043365389106  43.75381791889667 14.558592110872269  43.566647100448606 15.500792431831359  C 43.37947628200054 16.44299275279045  42.91700118780136 17.308489072322846  42.23774628639221 17.987743973731995  C 41.558491384983064 18.666998875141143  40.69299506545067 19.12947859466076  39.75079474449158 19.316649413108827  C 38.80859442353248 19.503820231556894  37.83204336538911 19.407268871739507  36.9447377204895 19.039215755462646  C 36.057432075589894 18.671162639185784  35.29925901740789 18.048152754455806  34.76617016792297 17.24903404712677  C 34.233081318438046 16.449915339797734  33.94904082706853 15.510610975325108  33.95 14.549999999999999  Z M 14.549999999999999 53.349999999999994  C 11.872800067067146 53.349999999999994  9.7 51.172349995374674  9.7 48.5  C 9.69904082706853 47.5393890246749  9.983079005777835 46.60008697286248  10.516167855262756 45.80096826553345  C 11.049256704747675 45.00184955820441  11.807432075589896 44.37883736081421  12.6947377204895 44.010784244537355  C 13.582043365389106 43.64273112826049  14.558592110872269 43.546182081103325  15.500792431831359 43.73335289955139  C 16.44299275279045 43.92052371799946  17.308489072322846 44.38299881219864  17.987743973731995 45.06225371360779  C 18.666998875141143 45.74150861501693  19.12947859466076 46.60700493454933  19.316649413108827 47.54920525550842  C 19.503820231556894 48.491405576467514  19.407268871739507 49.467956634610886  19.039215755462646 50.3552622795105  C 18.671162639185784 51.24256792441011  18.048152754455806 52.000740982592106  17.24903404712677 52.53382983207703  C 16.449915339797734 53.06691868156195  15.510610975325108 53.350959172931475  14.549999999999999 53.349999999999994  Z M 42.22946696281433 85.87947158813476  C 41.31991555020213 86.78902300074697  40.086300022900105 87.3  38.8 87.3  C 37.5136999770999 87.3  36.28008444979787 86.78902300074697  35.370533037185666 85.87947158813476  C 34.46098162457347 84.96992017552257  33.95 83.7363000229001  33.95 82.45  C 33.95 81.1636999770999  34.46098162457347 79.93007982447743  35.370533037185666 79.02052841186523  C 36.28008444979787 78.11097699925303  37.5136999770999 77.6  38.8 77.6  C 40.086300022900105 77.6  41.31991555020213 78.11097699925303  42.22946696281433 79.02052841186523  C 43.13901837542653 79.93007982447743  43.65 81.1636999770999  43.65 82.45  C 43.65 83.7363000229001  43.13901837542653 84.96992017552257  42.22946696281433 85.87947158813476  Z M 52.19084844589233 76.76579570770264  C 51.07257511243225 74.13884005248546  49.20735401213168 71.89819780886174  46.82676258087158 70.32205829620361  C 44.446171149611466 68.74591878354549  41.65506865382194 67.90371056507574  38.8 67.9  C 36.92789996415377 67.90000000000002  35.15280185937881 68.28314680159092  33.508651924133304 68.93304681777954  C 33.508651924133304 68.93304681777954  25.389750647544858 58.11270170211791  25.389750647544858 58.11270170211791  C 27.669250641763213 55.537351614236826  29.099999999999998 52.19570011794568  29.099999999999998 48.5  C 29.099999999999998 45.90039993524551  28.36279915645718 43.49479997456074  27.1648491859436 41.385049962997435  C 27.1648491859436 41.385049962997435  36.54960122108459 28.87205033302307  36.54960122108459 28.87205033302307  C 37.28680119737982 28.988450334034855  38.02885002717376 29.099999999999998  38.8 29.099999999999998  C 40.705877161026 29.10095682773535  42.59325000494719 28.72621535286307  44.35419116020203 27.997205662727353  C 46.11513231545687 27.26819597259164  47.715101189911366 26.19921829253435  49.06260085105896 24.85140035152435  C 49.06260085105896 24.85140035152435  68.05035066604614 32.446497964859006  68.05035066604614 32.446497964859006  C 68.0018506671302 32.946047965437174  67.9 33.43590000607073  67.9 33.95  C 67.9 40.264700222015385  71.96914993524551 45.594847942888734  77.6 47.602747964859006  C 77.6 47.602747964859006  77.6 59.09240007400513  77.6 59.09240007400513  C 74.77210597097874 60.089188571274285  72.32181862145663 61.93640467226505  70.58518352508545 64.38071856498718  C 68.84854842871428 66.82503245770931  67.91061249058694 69.7467433065176  67.9 72.74515266418457  C 67.90000000000002 73.04100266750902  67.9727482977556 73.3126028927043  67.98729829788208 73.60360288619995  C 67.98729829788208 73.60360288619995  52.19084844589233 76.76579570770264  52.19084844589233 76.76579570770264  Z M 85.87947158813476 76.17947158813476  C 84.96992017552256 77.08902300074696  83.7363000229001 77.6  82.45 77.6  C 81.1636999770999 77.6  79.93007982447743 77.08902300074696  79.02052841186523 76.17947158813476  C 78.11097699925304 75.26992017552257  77.6 74.03630002290011  77.6 72.75  C 77.6 71.46369997709989  78.11097699925304 70.23007982447743  79.02052841186523 69.32052841186524  C 79.93007982447743 68.41097699925304  81.1636999770999 67.9  82.45 67.9  C 83.7363000229001 67.9  84.96992017552256 68.41097699925304  85.87947158813476 69.32052841186524  C 86.78902300074695 70.23007982447743  87.3 71.46369997709989  87.3 72.75  C 87.3 74.03630002290011  86.78902300074695 75.26992017552257  85.87947158813476 76.17947158813476  Z " fill-rule="nonzero" fill="#5c0b0d" stroke="none" transform="matrix(1 0 0 1 270 1338 )" />
  </g>
</svg>