<?xml version="1.0" encoding="utf-8"?>
<svg version="1.1" xmlns:xlink="http://www.w3.org/1999/xlink" width="81px" height="81px" xmlns="http://www.w3.org/2000/svg">
  <g transform="matrix(1 0 0 1 -467 -1347 )">
    <path d="M 81 13.5  C 81 6.056999802589416  74.94300019741058 0  67.5 0  C 64.71749997138977 0.007881080266088247  62.005736768245704 0.8773662596940993  59.7374382019043 2.4889461994171143  C 57.46913963556289 4.100526139140129  55.75565600395203 6.375089406967164  54.83250188827515 9  C 54.83250188827515 9  26.167498111724857 9  26.167498111724857 9  C 25.244343996047974 6.375089406967164  23.530860364437103 4.100526139140129  21.262561798095703 2.4889461994171143  C 18.994263231754303 0.8773662596940993  16.28250002861023 0.007881080266088247  13.5 0  C 6.056999802589416 0  0 6.056999802589416  0 13.5  C 0 19.359000205993652  3.775499939918518 24.30449809134007  9 26.167498111724857  C 9 26.167498111724857  9 54.82800006866456  9 54.82800006866456  C 6.375822991132736 55.753679417073734  4.102222234010696 57.46842321753502  2.4909374713897705 59.73711204528809  C 0.8796527087688448 62.00580087304116  0.009573817136697471 64.71735808253288  0 67.5  C 0 74.94300019741058  6.056999802589416 81  13.5 81  C 16.28250002861023 80.99211891973391  18.994263231754303 80.12263588607311  21.262561798095703 78.5110559463501  C 23.530860364437103 76.89947600662708  25.244343996047974 74.62491059303284  26.167498111724857 72  C 26.167498111724857 72  54.82800006866456 72  54.82800006866456 72  C 55.751721806824214 74.62454661726952  57.46535208821296 76.8987418860197  59.733524322509766 78.51023197174072  C 62.001696556806564 80.12172205746174  64.71315935254098 80.99146311281947  67.49550247192384 81  C 74.93850266933441 80.99999999999999  80.99550247192383 74.94300019741058  80.99550247192383 67.5  C 80.98592865478713 64.71735808253288  80.11584332585335 62.00580087304116  78.50455856323242 59.73711204528809  C 76.8932738006115 57.46842321753502  74.61967948079109 55.753679417073734  71.99550247192383 54.82800006866456  C 71.99550247192383 54.82800006866456  71.99550247192383 26.171999931335453  71.99550247192383 26.171999931335453  C 74.62088406085968 25.24763593822718  76.89581841230392 23.533358305692673  78.50804328918457 21.264480113983154  C 80.12026816606522 18.995601922273636  80.99075119115878 16.283341974020004  81 13.5  Z M 63.00000000000001 13.5  C 63.00000000000001 11.020500004291534  65.01600006222725 9  67.5 9  C 68.3912885338068 8.999110045733687  69.2628059014678 9.26265062391758  70.00425624847412 9.757269144058228  C 70.74570659548044 10.251887664198875  71.32375914976001 10.955349348485472  71.66525173187257 11.778622627258303  C 72.00674431398512 12.601895906031134  72.09633019566536 13.507972061634064  71.92266654968262 14.382178544998169  C 71.74900290369989 15.256385028362274  71.31989371776581 16.05942285060883  70.68965721130371 16.689659357070926  C 70.05942070484161 17.31989586353302  69.25638288259506 17.749000757932663  68.38217639923096 17.922664403915405  C 67.50796991586685 18.096328049898148  66.60189590603113 18.006744313985113  65.7786226272583 17.66525173187256  C 64.95534934848548 17.323759149760008  64.25188551843166 16.745708741247654  63.757266998291016 16.004258394241333  C 63.262648478150375 15.262808047235012  62.99911004573369 14.3912885338068  63.00000000000001 13.5  Z M 54.83250188827515 63.00000000000001  C 54.83250188827515 63.00000000000001  26.167498111724857 63.00000000000001  26.167498111724857 63.00000000000001  C 25.49847169965506 61.11678725481033  24.41832983493805 59.4062631726265  23.0055513381958 57.99270629882813  C 21.592772841453552 56.57914942502976  19.88284394145012 55.498063690960414  18 54.82800006866456  C 18 54.82800006866456  18 26.171999931335453  18 26.171999931335453  C 19.88284394145012 25.501936309039596  21.592772841453552 24.420850574970245  23.0055513381958 23.00729370117188  C 24.41832983493805 21.593736827373508  25.49847169965506 19.883212745189667  26.167498111724857 18  C 26.167498111724857 18  54.82800006866456 18  54.82800006866456 18  C 55.498063690960414 19.88284394145012  56.57914942502976 21.592772841453552  57.99270629882813 23.0055513381958  C 59.4062631726265 24.41832983493805  61.11678725481033 25.49847169965506  63.00000000000001 26.167498111724857  C 63.00000000000001 26.167498111724857  63.00000000000001 54.82800006866456  63.00000000000001 54.82800006866456  C 61.11715605854989 55.498063690960414  59.40722715854645 56.57914942502976  57.9944486618042 57.99270629882813  C 56.58167016506195 59.4062631726265  55.50152830034495 61.11678725481033  54.83250188827515 63.00000000000001  Z M 9 13.5  C 9 11.020500004291534  11.01600006222725 9  13.5 9  C 14.3912885338068 8.999110045733687  15.262808047235012 9.26265062391758  16.004258394241333 9.757269144058228  C 16.745708741247654 10.251887664198875  17.323759149760008 10.955349348485472  17.66525173187256 11.778622627258303  C 18.006744313985113 12.601895906031134  18.096328049898148 13.507972061634064  17.922664403915405 14.382178544998169  C 17.749000757932663 15.256385028362274  17.31989586353302 16.05942285060883  16.689659357070926 16.689659357070926  C 16.05942285060883 17.31989586353302  15.256385028362274 17.749000757932663  14.382178544998169 17.922664403915405  C 13.507972061634064 18.096328049898148  12.601895906031134 18.006744313985113  11.778622627258303 17.66525173187256  C 10.955349348485472 17.323759149760008  10.251887664198875 16.745708741247654  9.757269144058228 16.004258394241333  C 9.26265062391758 15.262808047235012  8.999110045733687 14.3912885338068  9 13.5  Z M 13.5 72  C 12.341341093182564 71.94817024189979  11.247323758900167 71.45142126828432  10.44574284553528 70.6131820678711  C 9.644161932170393 69.77494286745787  9.196796894073486 68.65981762111187  9.196796894073486 67.5  C 9.196796894073486 66.34018237888813  9.644161932170393 65.22505713254213  10.44574284553528 64.3868179321289  C 11.247323758900167 63.548578731715686  12.341341093182564 63.05182975810022  13.5 63.00000000000001  C 14.658658906817436 63.05182975810022  15.752676241099834 63.548578731715686  16.55425715446472 64.3868179321289  C 17.355838067829612 65.22505713254213  17.803203105926517 66.34018237888813  17.803203105926517 67.5  C 17.803203105926517 68.65981762111187  17.355838067829612 69.77494286745787  16.55425715446472 70.6131820678711  C 15.752676241099834 71.45142126828432  14.658658906817436 71.94817024189979  13.5 72  Z M 67.5 72  C 66.34134109318256 71.94817024189979  65.24732161313295 71.45142126828432  64.44574069976807 70.6131820678711  C 63.64415978640318 69.77494286745787  63.196792602539084 68.65981762111187  63.19679260253906 67.5  C 63.196792602539084 66.34018237888813  63.64415978640318 65.22505713254213  64.44574069976807 64.3868179321289  C 65.24732161313295 63.548578731715686  66.34134109318256 63.05182975810022  67.5 63.00000000000001  C 68.65865890681744 63.05182975810022  69.75267838686705 63.548578731715686  70.55425930023193 64.3868179321289  C 71.35584021359682 65.22505713254213  71.80320739746092 66.34018237888813  71.80320739746094 67.5  C 71.80320739746092 68.65981762111187  71.35584021359682 69.77494286745787  70.55425930023193 70.6131820678711  C 69.75267838686705 71.45142126828432  68.65865890681744 71.94817024189979  67.5 72  Z " fill-rule="nonzero" fill="#5c0b0d" stroke="none" transform="matrix(1 0 0 1 467 1347 )" />
  </g>
</svg>